<svg width="552" height="552" viewBox="0 0 552 552" fill="none" xmlns="http://www.w3.org/2000/svg">
<path d="M388.632 287.409C415.57 271.937 442.436 256.339 469.466 241.027C495.122 226.491 525.308 239.897 531.124 268.185C534.49 284.549 527.184 302.227 512.41 310.837C463.974 339.063 415.468 367.177 366.72 394.861C351.632 403.429 336.09 401.853 322.34 391.353C308.372 380.693 303.97 365.989 307.246 348.875C310.986 335.847 319.546 327.137 331.22 320.621C350.522 309.849 369.51 298.509 388.632 287.409Z" fill="#FABC05"/>
<path d="M408.406 276.158C381.536 260.566 354.598 245.096 327.822 229.346C302.404 214.394 298.924 181.55 320.512 162.366C333 151.272 351.962 148.758 366.806 157.248C415.47 185.082 464.07 213.034 512.418 241.408C527.382 250.19 533.786 264.44 531.572 281.598C529.322 299.022 518.79 310.186 502.332 315.908C489.178 319.184 477.356 316.124 465.876 309.272C446.894 297.942 427.58 287.166 408.406 276.158Z" fill="#FABC05"/>
<path d="M163.504 265.126C146.262 274.922 129.01 284.7 111.786 294.526C101.71 300.274 91.7456 306.218 81.6176 311.87C61.2116 323.26 36.9676 316.584 25.3976 296.522C14.3556 277.378 20.7016 252.558 40.3536 241.086C88.4036 213.04 136.578 185.198 184.926 157.668C199.754 149.224 215.138 150.286 228.85 160.38C243.322 171.034 248.06 186.026 244.81 203.602C242.794 207.854 241.59 212.84 238.572 216.19C233.662 221.64 228.082 226.858 221.87 230.69C202.646 242.544 182.992 253.7 163.504 265.126Z" fill="#FABC05"/>
<path d="M143.732 276.114C160.838 286.146 177.932 296.2 195.054 306.204C205.068 312.056 215.198 317.714 225.156 323.656C245.224 335.636 251.566 359.968 239.976 380.018C228.916 399.154 204.25 406.07 184.488 394.784C136.174 367.194 87.9761 339.398 39.9601 311.292C25.2341 302.672 18.4621 288.818 20.3481 271.896C22.3381 254.034 32.9521 242.436 49.7981 236.462C54.4881 236.084 59.4081 234.632 63.8201 235.572C70.9941 237.1 78.3041 239.322 84.7281 242.786C104.606 253.506 124.094 264.95 143.732 276.114Z" fill="#FABC05"/>
</svg>
