<svg width="512" height="512" viewBox="0 0 512 512" fill="none" xmlns="http://www.w3.org/2000/svg">
<path d="M25.4882 64.0684C25.3929 45.826 33.1307 28.4197 46.7379 16.269C60.345 4.11831 78.5126 -1.60805 96.6279 0.543901C129.226 5.36749 153.115 33.7352 152.321 66.679L152.321 445.433C153.108 478.413 129.161 506.794 96.5191 511.568C78.4213 513.686 60.2838 507.945 46.7018 495.798C33.1199 483.651 25.3967 466.265 25.4882 448.044L25.4882 64.0684Z" fill="#F9AB00"/>
<path d="M424.584 126.832C389.561 126.832 361.169 98.4395 361.169 63.4159C361.169 28.3924 389.561 0.000183105 424.584 0.000183105C459.608 0.000183105 488 28.3924 488 63.4159C488 98.4395 459.608 126.832 424.584 126.832ZM257.724 319.037C292.913 317.108 320.215 287.591 319.399 252.358L319.399 82.0164C319.399 35.7871 299.058 7.72318 269.254 1.74057C250.543 -2.05161 231.119 2.77249 216.356 14.8779C201.593 26.9832 193.058 45.0862 193.111 64.1774L193.111 255.295C193.08 272.361 199.906 288.725 212.055 300.711C224.204 312.696 240.659 319.299 257.724 319.037Z" fill="#E37400"/>
</svg>
