<svg width="512" height="512" viewBox="0 0 512 512" fill="none" xmlns="http://www.w3.org/2000/svg">
<path d="M407.273 512H104.727C85.4111 512 69.8184 496.407 69.8184 477.091V34.9091C69.8184 15.5927 85.4111 0 104.727 0H314.182L442.182 128V477.091C442.182 496.407 426.589 512 407.273 512Z" fill="#FF9500"/>
<path d="M314.182 0L442.182 128H314.182V0Z" fill="#FF9500"/>
<path d="M296.727 343.273V372.364H215.272V343.273H296.727ZM255.883 174.547L257.018 174.556C298.215 175.223 331.403 208.825 331.403 250.182C331.403 277.178 317.265 300.8 296.029 314.182H215.738C194.443 300.8 180.363 277.178 180.363 250.182C180.363 208.407 214.225 174.545 256 174.545L255.883 174.547Z" fill="#FCFCFC"/>
</svg>
