<svg width="48" height="48" viewBox="0 0 48 48" fill="none" xmlns="http://www.w3.org/2000/svg">
<path d="M27.0804 23.6573C27.0804 31.1812 21.0226 37.2804 13.5501 37.2804C6.07756 37.2804 0.0197754 31.1812 0.0197754 23.6573C0.0197754 16.1334 6.07756 10.0342 13.5501 10.0342C21.0226 10.0342 27.0804 16.1334 27.0804 23.6573Z" fill="#100F0D"/>
<path d="M41.9234 23.6573C41.9234 30.7399 38.8949 36.4813 35.1581 36.4813C31.4221 36.4813 28.3933 30.7399 28.3933 23.6573C28.3933 16.575 31.4221 10.8336 35.1581 10.8336C38.8949 10.8336 41.9234 16.575 41.9234 23.6573Z" fill="#100F0D"/>
<path d="M47.995 23.6574C47.995 30.003 46.9295 35.1471 45.6156 35.1471C44.3015 35.1471 43.2366 30.003 43.2366 23.6574C43.2366 17.3119 44.3015 12.1678 45.6156 12.1678C46.9295 12.1678 47.995 17.3119 47.995 23.6574Z" fill="#100F0D"/>
</svg>
