<svg width="48" height="48" viewBox="0 0 48 48" fill="none" xmlns="http://www.w3.org/2000/svg">
<g clip-path="url(#clip0_402_705)">
<path fill-rule="evenodd" clip-rule="evenodd" d="M22.3056 0.0923535C14.5163 0.858167 8.20374 4.52977 4.07121 10.6982C-6.56139 26.5687 4.87679 47.9922 23.988 48.002C42.8607 48.0117 54.3084 27.2778 44.2915 11.2289C39.7234 3.90989 30.5806 -0.721186 22.3056 0.0923535ZM23.8163 12.8976C29.8996 13.2765 35.7143 14.8238 39.9149 17.1814C40.8034 17.6801 41.0299 17.881 41.2897 18.401C42.0225 19.8674 40.9764 21.5671 39.3357 21.576C38.7304 21.5792 38.8677 21.632 37.2414 20.7712C31.5727 17.7705 22.4733 16.4907 14.6831 17.5985C13.2218 17.8063 12.054 18.0417 10.9063 18.3597C8.10931 19.1348 6.20529 16.5411 8.25002 14.7413C9.71675 13.4502 17.6341 12.5124 23.8163 12.8976ZM24.135 21.2615C29.0358 21.8617 33.4029 23.2516 36.8773 25.3169C38.0238 25.9984 38.4343 26.8766 38.043 27.8108C37.5266 29.0437 36.3866 29.2839 34.9655 28.4591C28.8039 24.8826 19.8224 23.7388 12.5887 25.6096C10.8131 26.0688 10.5159 26.0767 9.94701 25.6797C8.59056 24.7335 8.93569 22.8224 10.5504 22.3382C12.3727 21.7918 14.9082 21.3297 17.1553 21.1347C18.4333 21.0237 22.8484 21.104 24.135 21.2615ZM21.9236 28.895C28.0808 29.2179 35.1737 31.8622 35.1791 33.8366C35.1827 35.168 33.9347 35.6844 32.6084 34.9002C27.4033 31.8228 20.6992 31.012 13.1037 32.5413C11.4975 32.8647 11.1562 32.8674 10.7203 32.5604C9.91789 31.9952 9.91006 30.7387 10.7055 30.1793C11.7295 29.4593 18.3125 28.7056 21.9236 28.895Z" fill="#1ED760"/>
</g>
<defs>
<clipPath id="clip0_402_705">
<rect width="48" height="48" fill="white"/>
</clipPath>
</defs>
</svg>
