<svg width="128" height="128" viewBox="0 0 128 128" fill="none" xmlns="http://www.w3.org/2000/svg">
<path d="M49.4349 82.361L91.9886 51.6481C94.0749 50.1425 97.0567 50.7297 98.0509 53.0686C103.283 65.4027 100.945 80.2253 90.5359 90.4025C80.127 100.579 65.6439 102.811 52.406 97.7281L37.9447 104.274C58.6864 118.136 83.8734 114.708 99.6127 99.3087C112.097 87.1025 115.964 70.4645 112.348 55.4607L112.381 55.4926C107.138 33.4512 113.67 24.641 127.05 6.62549C127.366 6.19833 127.683 5.77117 128 5.33333L110.393 22.5479V22.4945L49.4242 82.3718" fill="black"/>
<path d="M40.6535 89.8257C25.766 75.9215 28.3328 54.4032 41.0356 41.9945C50.4287 32.8104 65.8186 29.0621 79.2531 34.5725L93.6817 28.0583C91.0824 26.2215 87.7507 24.2459 83.9279 22.8576C66.6488 15.9056 45.9616 19.3655 31.9154 33.0881C18.4043 46.298 14.1555 66.6095 21.4517 83.9416C26.902 96.8952 17.9674 106.058 8.96732 115.306C5.77795 118.584 2.57768 121.863 0 125.333L40.6423 89.8362" fill="black"/>
</svg>
