<svg width="48" height="48" viewBox="0 0 48 48" fill="none" xmlns="http://www.w3.org/2000/svg">
<g clip-path="url(#clip0_1_625)">
<g clip-path="url(#clip1_1_625)">
<path d="M23.9998 7.99993L17.5998 14.3999L20.7998 17.6L27.1998 11.1999C29.8398 8.55993 34.1599 8.55993 36.7999 11.1999C39.4399 13.8399 39.4399 18.16 36.7999 20.8L30.3998 27.2L33.5999 30.4L39.9999 24C44.4159 19.584 44.4159 12.4159 39.9999 7.99993C35.5839 3.58392 28.4158 3.58392 23.9998 7.99993ZM27.1998 30.4L20.7998 36.8C18.1598 39.44 13.8398 39.44 11.1998 36.8C8.55978 34.16 8.55978 29.84 11.1998 27.2L17.5998 20.8L14.3998 17.6L7.99978 24C3.58377 28.416 3.58377 35.584 7.99978 40C12.4158 44.416 19.5838 44.416 23.9998 40L30.3998 33.6L27.1998 30.4ZM15.9998 28.8L28.7998 16L31.9998 19.2L19.1998 32L15.9998 28.8Z" fill="black"/>
</g>
</g>
<defs>
<clipPath id="clip0_1_625">
<rect width="48" height="48" fill="white"/>
</clipPath>
<clipPath id="clip1_1_625">
<rect width="48" height="48" fill="white"/>
</clipPath>
</defs>
</svg>
