<svg width="48" height="48" viewBox="0 0 48 48" fill="none" xmlns="http://www.w3.org/2000/svg">
<g clip-path="url(#clip0_204_489)">
<path fill-rule="evenodd" clip-rule="evenodd" d="M10.815 0H37.185C43.158 0 48 4.84204 48 10.815V37.185C48 43.158 43.158 48 37.185 48H10.815C4.84204 48 0 43.158 0 37.185V10.815C0 4.84204 4.84204 0 10.815 0ZM24.005 39.27C25.715 38.55 33.215 33.855 36.575 29.985C38.885 27.435 40.01 24.855 40.01 21.99C40.01 14.835 32.825 9 24.005 9C15.17 9 8 14.835 8 21.99C8 28.41 13.685 33.795 21.38 34.8C21.905 34.92 22.61 35.145 22.79 35.595C22.955 36 22.895 36.63 22.835 37.05C22.715 37.8 22.64 38.255 22.61 38.415L22.6013 38.4716C22.5316 38.9177 22.369 39.9588 24.005 39.27ZM29.935 25.875H34.435C34.6 25.875 34.735 25.74 34.735 25.575V24.435C34.735 24.27 34.6 24.135 34.435 24.135H31.375V22.95H34.435C34.6 22.95 34.735 22.815 34.735 22.65V21.51C34.735 21.345 34.6 21.21 34.435 21.21H31.375V20.025H34.435C34.6 20.025 34.735 19.89 34.735 19.725V18.585C34.735 18.42 34.6 18.285 34.435 18.285H29.935C29.77 18.285 29.635 18.42 29.635 18.585V25.56V25.575C29.635 25.74 29.77 25.875 29.935 25.875ZM13.315 25.875H13.3C13.135 25.875 13 25.74 13 25.575V25.56V18.585C13 18.42 13.135 18.285 13.3 18.285H14.44C14.605 18.285 14.74 18.42 14.74 18.585V24.135H17.8C17.965 24.135 18.1 24.27 18.1 24.435V25.575C18.1 25.74 17.965 25.875 17.8 25.875H13.315ZM19.3601 18.285H20.5001C20.6657 18.285 20.8001 18.4193 20.8001 18.585V25.575C20.8001 25.7407 20.6657 25.875 20.5001 25.875H19.3601C19.1944 25.875 19.0601 25.7407 19.0601 25.575V18.585C19.0601 18.4193 19.1944 18.285 19.3601 18.285ZM28.54 18.585V25.575C28.54 25.74 28.405 25.875 28.225 25.875H27.1C27.07 25.875 27.045 25.87 27.025 25.86H26.995V25.845H26.98H26.965L26.95 25.83C26.94 25.83 26.935 25.825 26.935 25.815H26.92C26.89 25.795 26.865 25.77 26.845 25.74L23.65 21.42V25.575C23.65 25.74 23.515 25.875 23.335 25.875H22.21C22.045 25.875 21.895 25.74 21.895 25.575V18.585C21.895 18.42 22.045 18.285 22.21 18.285H23.335H23.35H23.365H23.38H23.395H23.41H23.425C23.425 18.295 23.43 18.3 23.44 18.3H23.455L23.47 18.315H23.5V18.33C23.51 18.33 23.515 18.335 23.515 18.345H23.53L23.545 18.36L23.575 18.39C23.585 18.4 23.59 18.41 23.59 18.42L26.785 22.725V18.585C26.785 18.42 26.935 18.285 27.1 18.285H28.225C28.405 18.285 28.54 18.42 28.54 18.585Z" fill="#06C755"/>
</g>
<defs>
<clipPath id="clip0_204_489">
<rect width="48" height="48" fill="white"/>
</clipPath>
</defs>
</svg>
