<?xml version="1.0" encoding="UTF-8"?>
<svg id="logosandtypes_com" data-name="logosandtypes com" xmlns="http://www.w3.org/2000/svg" viewBox="0 0 150 150">
  <defs>
    <style>
      .cls-1 {
        fill: none;
      }
    </style>
  </defs>
  <g id="Layer_2" data-name="Layer 2">
    <path id="Layer_3" data-name="Layer 3" class="cls-1" d="M0,0H150V150H0V0Z"/>
  </g>
  <path d="M74.94,26.1C38.45,26.1,8.88,55.42,8.88,91.61v31.37h12.18v-3.13c0-14.68,11.99-26.57,26.79-26.57s26.79,11.9,26.79,26.57v3.13h12.18v-3.13c0-21.34-17.45-38.64-38.96-38.64-8.38,0-16.14,2.62-22.49,7.09,6.65-13.11,20.35-22.11,36.16-22.11,22.34,0,40.45,17.97,40.45,40.12v16.67h12.18v-16.67c0-28.82-23.56-52.2-52.63-52.2-13.07,0-25.02,4.72-34.23,12.55,9.04-16.95,26.98-28.49,47.66-28.49,29.76,0,53.88,23.93,53.88,53.44v31.37h12.18v-31.37c0-36.19-29.58-65.51-66.07-65.51Z"/>
</svg>