<svg width="48" height="48" viewBox="0 0 48 48" fill="none" xmlns="http://www.w3.org/2000/svg">
<path fill-rule="evenodd" clip-rule="evenodd" d="M18.9178 16.263V12.5919C18.9178 11.9229 18.9517 11.6998 19.0526 11.3566C19.3223 10.4131 20.2327 9.7099 21.3114 9.7099C22.39 9.7099 23.3001 10.4303 23.5698 11.3566C23.671 11.6998 23.7049 11.9229 23.7049 12.5919V18.2529C23.7049 18.5962 23.7049 18.9391 23.6374 19.248C23.4521 20.1056 22.6936 20.8779 21.8507 21.0665C21.5474 21.135 21.2102 21.135 20.8729 21.135H15.3108C14.6534 21.135 14.4342 21.1007 14.097 20.9977C13.1868 20.7233 12.4791 19.7969 12.4791 18.6991C12.4791 17.601 13.1868 16.6747 14.097 16.4003C14.4342 16.2973 14.6534 16.263 15.3108 16.263H18.9178ZM38.7399 41.9273H8.90568V15.1824C8.90568 14.8391 9.02369 14.5476 9.25972 14.3074L16.9963 6.43303C17.2323 6.19312 17.5188 6.073 17.856 6.073H38.7399V41.9273ZM42.128 0.034229C41.9764 0.0171142 41.774 0 41.3863 0H17.0635C16.7942 0 16.5245 0.0171142 16.3389 0.034229C15.2264 0.137223 14.2318 0.669007 13.4397 1.47524L4.3882 10.6876C3.59635 11.4941 3.07355 12.506 2.97265 13.6384C2.95554 13.8269 2.93872 14.1014 2.93872 14.3758V44.6204C2.93872 45.015 2.95554 45.221 2.97265 45.3753C3.10718 46.662 4.25337 47.8282 5.51757 47.9655C5.66951 47.9829 5.8716 48 6.25927 48H41.3863C41.774 48 41.9764 47.9829 42.128 47.9655C43.3922 47.8282 44.5384 46.662 44.6732 45.3753C44.6897 45.221 44.7068 45.015 44.7068 44.6204V3.37956C44.7068 2.985 44.6897 2.77902 44.6732 2.62468C44.5384 1.33801 43.3922 0.171453 42.128 0.034229Z" fill="#41C9B4"/>
</svg>
