<svg width="48" height="48" viewBox="0 0 48 48" fill="none" xmlns="http://www.w3.org/2000/svg">
<path fill-rule="evenodd" clip-rule="evenodd" d="M21.9765 6.13754C13.6298 7.07894 8.68805 12.8599 8.06875 22.4074C7.14765 36.6058 15.5691 45.0538 28.1184 42.5204C38.9511 40.3335 42.1815 27.77 33.0691 23.2666C32.5744 23.0221 32.3682 22.8627 32.3381 22.7015C32.315 22.578 32.2458 22.0855 32.1842 21.607C31.3122 14.8314 23.2116 12.119 18.4015 16.992C17.2755 18.1328 17.2325 17.9091 18.7782 18.9527C20.0751 19.8284 20.0751 19.8284 20.6514 19.2527C23.34 16.5669 28.0931 17.7374 28.886 21.2806C29.0367 21.954 29.088 21.9185 28.1265 21.8064C26.7225 21.6427 23.2586 21.7679 22.3265 22.016C14.0889 24.2093 15.9919 34.4622 24.5692 34.099C28.5726 33.9295 31.1525 31.5927 32.0308 27.3406C32.2433 26.3119 32.3941 26.3277 33.5363 27.4983C37.6931 31.7586 33.6601 38.6296 26.4791 39.5217C15.9031 40.8357 10.037 33.7256 11.3851 21.227C12.2179 13.5065 16.7602 9.28514 24.2265 9.29314C30.4279 9.29974 34.9299 12.3267 36.4807 17.5324C36.7782 18.5314 36.6748 18.5006 38.2937 18.0719C40.0621 17.6036 39.951 17.7296 39.579 16.6144C37.1031 9.19064 30.381 5.18964 21.9765 6.13754ZM27.5265 25.0266C29.2289 25.2119 29.1132 25.1485 29.0393 25.8555C28.5743 30.3047 24.162 32.5788 21.141 29.9264C18.1358 27.2877 21.8831 24.4123 27.5265 25.0266Z" fill="black"/>
</svg>
